# xmcd
#
# Track frame offsets:
#	151
#	6462
#	325019
#
# Disc length: 4410 seconds
#
# Revision: 0
# Processed by: cddbd v1.5.2PL0 Copyright (c) Steve Scherf et al.
# Submitted via: audiograbber 1.83.01
#
DISCID=1d113803
DTITLE=Apostol  Carlos Lopez - Cordon de tres dobleces II
DYEAR=2008
DGENRE=Predicaciones
TTITLE0=entrada
TTITLE1=cuerpo del mensaje
TTITLE2=salida
EXTD=mensaje compartido en la cena de parejas II
EXTT0=
EXTT1=
EXTT2=
PLAYORDER=
